<mxfile host="Electron" agent="Mozilla/5.0 (Windows NT 10.0; Win64; x64) AppleWebKit/537.36 (KHTML, like Gecko) draw.io/26.1.1 Chrome/132.0.6834.210 Electron/34.3.3 Safari/537.36" version="26.1.1">
  <diagram id="C5RBs43oDa-KdzZeNtuy" name="Page-1">
    <mxGraphModel dx="2074" dy="1197" grid="1" gridSize="10" guides="1" tooltips="1" connect="1" arrows="1" fold="1" page="1" pageScale="1" pageWidth="1169" pageHeight="827" math="0" shadow="0">
      <root>
        <mxCell id="WIyWlLk6GJQsqaUBKTNV-0" />
        <mxCell id="WIyWlLk6GJQsqaUBKTNV-1" parent="WIyWlLk6GJQsqaUBKTNV-0" />
        <mxCell id="vt_LdCKFK2phQcsKuzaI-10" value="" style="edgeStyle=orthogonalEdgeStyle;shape=connector;rounded=0;orthogonalLoop=1;jettySize=auto;html=1;strokeColor=default;align=center;verticalAlign=middle;fontFamily=Helvetica;fontSize=11;fontColor=default;labelBackgroundColor=default;endArrow=open;endFill=0;sourceMultiplicity=1..*;targetMultiplicity=0..1;label=XXXX" parent="WIyWlLk6GJQsqaUBKTNV-1" source="vt_LdCKFK2phQcsKuzaI-7" target="vt_LdCKFK2phQcsKuzaI-9" edge="1">
          <mxGeometry relative="1" as="geometry" />
        </mxCell>
        <mxCell id="vt_LdCKFK2phQcsKuzaI-13" value="1" style="edgeLabel;html=1;align=center;verticalAlign=middle;resizable=0;points=[];fontFamily=Helvetica;fontSize=11;fontColor=default;labelBackgroundColor=none;" parent="vt_LdCKFK2phQcsKuzaI-10" vertex="1" connectable="0">
          <mxGeometry x="0.6724" y="1" relative="1" as="geometry">
            <mxPoint x="6" y="-1" as="offset" />
          </mxGeometry>
        </mxCell>
        <mxCell id="vt_LdCKFK2phQcsKuzaI-26" value="KodOs" style="edgeLabel;html=1;align=center;verticalAlign=middle;resizable=0;points=[];fontFamily=Helvetica;fontSize=11;fontColor=default;labelBackgroundColor=default;" parent="vt_LdCKFK2phQcsKuzaI-10" vertex="1" connectable="0">
          <mxGeometry x="-0.0103" y="1" relative="1" as="geometry">
            <mxPoint as="offset" />
          </mxGeometry>
        </mxCell>
        <mxCell id="vt_LdCKFK2phQcsKuzaI-14" value="" style="edgeStyle=orthogonalEdgeStyle;shape=connector;rounded=0;orthogonalLoop=1;jettySize=auto;html=1;strokeColor=default;align=center;verticalAlign=middle;fontFamily=Helvetica;fontSize=11;fontColor=default;labelBackgroundColor=default;endArrow=open;endFill=0;" parent="WIyWlLk6GJQsqaUBKTNV-1" source="vt_LdCKFK2phQcsKuzaI-7" target="vt_LdCKFK2phQcsKuzaI-12" edge="1">
          <mxGeometry relative="1" as="geometry" />
        </mxCell>
        <mxCell id="vt_LdCKFK2phQcsKuzaI-15" value="1" style="edgeLabel;html=1;align=center;verticalAlign=middle;resizable=0;points=[];fontFamily=Helvetica;fontSize=11;fontColor=default;labelBackgroundColor=default;" parent="vt_LdCKFK2phQcsKuzaI-14" vertex="1" connectable="0">
          <mxGeometry x="0.5948" y="1" relative="1" as="geometry">
            <mxPoint x="-5" y="8" as="offset" />
          </mxGeometry>
        </mxCell>
        <mxCell id="vt_LdCKFK2phQcsKuzaI-29" value="0..*" style="edgeLabel;html=1;align=center;verticalAlign=middle;resizable=0;points=[];fontFamily=Helvetica;fontSize=11;fontColor=default;labelBackgroundColor=none;" parent="vt_LdCKFK2phQcsKuzaI-14" vertex="1" connectable="0">
          <mxGeometry x="-0.7672" y="1" relative="1" as="geometry">
            <mxPoint x="-2" y="7" as="offset" />
          </mxGeometry>
        </mxCell>
        <mxCell id="vt_LdCKFK2phQcsKuzaI-28" value="" style="edgeStyle=orthogonalEdgeStyle;shape=connector;rounded=0;orthogonalLoop=1;jettySize=auto;html=1;strokeColor=default;align=center;verticalAlign=middle;fontFamily=Helvetica;fontSize=11;fontColor=default;labelBackgroundColor=default;endArrow=open;endFill=0;" parent="WIyWlLk6GJQsqaUBKTNV-1" source="vt_LdCKFK2phQcsKuzaI-27" target="vt_LdCKFK2phQcsKuzaI-7" edge="1">
          <mxGeometry relative="1" as="geometry" />
        </mxCell>
        <mxCell id="vt_LdCKFK2phQcsKuzaI-30" value="1" style="edgeLabel;html=1;align=center;verticalAlign=middle;resizable=0;points=[];fontFamily=Helvetica;fontSize=11;fontColor=default;labelBackgroundColor=none;" parent="vt_LdCKFK2phQcsKuzaI-28" vertex="1" connectable="0">
          <mxGeometry x="0.7155" y="-1" relative="1" as="geometry">
            <mxPoint y="9" as="offset" />
          </mxGeometry>
        </mxCell>
        <mxCell id="vt_LdCKFK2phQcsKuzaI-31" value="ovmMat" style="edgeLabel;html=1;align=center;verticalAlign=middle;resizable=0;points=[];fontFamily=Helvetica;fontSize=9;fontColor=default;labelBackgroundColor=none;" parent="vt_LdCKFK2phQcsKuzaI-28" vertex="1" connectable="0">
          <mxGeometry x="0.6638" relative="1" as="geometry">
            <mxPoint x="6" y="-10" as="offset" />
          </mxGeometry>
        </mxCell>
        <mxCell id="vt_LdCKFK2phQcsKuzaI-33" value="0..*" style="edgeLabel;html=1;align=center;verticalAlign=middle;resizable=0;points=[];fontFamily=Helvetica;fontSize=11;fontColor=default;labelBackgroundColor=none;" parent="vt_LdCKFK2phQcsKuzaI-28" vertex="1" connectable="0">
          <mxGeometry x="-0.7672" y="1" relative="1" as="geometry">
            <mxPoint x="-2" y="7" as="offset" />
          </mxGeometry>
        </mxCell>
        <mxCell id="vt_LdCKFK2phQcsKuzaI-7" value="&lt;span style=&quot;font-size: 12px;&quot;&gt;&amp;lt;&amp;lt;Matica&amp;gt;&amp;gt;&lt;/span&gt;&lt;div style=&quot;font-size: 12px;&quot;&gt;&lt;b&gt;OVM&lt;/b&gt;&lt;/div&gt;" style="rounded=0;whiteSpace=wrap;html=1;fontFamily=Helvetica;fontSize=11;labelBackgroundColor=none;fillColor=#FFC800;strokeColor=#000000;" parent="WIyWlLk6GJQsqaUBKTNV-1" vertex="1">
          <mxGeometry x="480" y="320" width="120" height="60" as="geometry" />
        </mxCell>
        <mxCell id="vt_LdCKFK2phQcsKuzaI-9" value="Oprávnený Subjekt&lt;div&gt;&lt;font style=&quot;font-size: 9px;&quot;&gt;(OVM, SPUU)&lt;/font&gt;&lt;/div&gt;" style="rounded=0;whiteSpace=wrap;html=1;fontFamily=Helvetica;fontSize=11;labelBackgroundColor=none;fillColor=#00AEE8;strokeColor=#000000;" parent="WIyWlLk6GJQsqaUBKTNV-1" vertex="1">
          <mxGeometry x="480" y="440" width="120" height="60" as="geometry" />
        </mxCell>
        <mxCell id="vt_LdCKFK2phQcsKuzaI-17" value="" style="edgeStyle=orthogonalEdgeStyle;shape=connector;rounded=0;orthogonalLoop=1;jettySize=auto;html=1;strokeColor=default;align=center;verticalAlign=middle;fontFamily=Helvetica;fontSize=11;fontColor=default;labelBackgroundColor=default;endArrow=open;endFill=0;" parent="WIyWlLk6GJQsqaUBKTNV-1" source="vt_LdCKFK2phQcsKuzaI-12" target="vt_LdCKFK2phQcsKuzaI-16" edge="1">
          <mxGeometry relative="1" as="geometry" />
        </mxCell>
        <mxCell id="vt_LdCKFK2phQcsKuzaI-23" value="KodCinnostniRole" style="edgeLabel;html=1;align=center;verticalAlign=middle;resizable=0;points=[];fontFamily=Helvetica;fontSize=11;fontColor=default;labelBackgroundColor=default;" parent="vt_LdCKFK2phQcsKuzaI-17" vertex="1" connectable="0">
          <mxGeometry x="-0.1612" y="-1" relative="1" as="geometry">
            <mxPoint as="offset" />
          </mxGeometry>
        </mxCell>
        <mxCell id="vt_LdCKFK2phQcsKuzaI-24" value="1" style="edgeLabel;html=1;align=center;verticalAlign=middle;resizable=0;points=[];fontFamily=Helvetica;fontSize=11;fontColor=default;labelBackgroundColor=none;" parent="vt_LdCKFK2phQcsKuzaI-17" vertex="1" connectable="0">
          <mxGeometry x="0.8006" y="-1" relative="1" as="geometry">
            <mxPoint x="-1" y="9" as="offset" />
          </mxGeometry>
        </mxCell>
        <mxCell id="vt_LdCKFK2phQcsKuzaI-19" value="" style="edgeStyle=orthogonalEdgeStyle;shape=connector;rounded=0;orthogonalLoop=1;jettySize=auto;html=1;strokeColor=default;align=center;verticalAlign=middle;fontFamily=Helvetica;fontSize=11;fontColor=default;labelBackgroundColor=default;endArrow=open;endFill=0;" parent="WIyWlLk6GJQsqaUBKTNV-1" source="vt_LdCKFK2phQcsKuzaI-12" target="vt_LdCKFK2phQcsKuzaI-18" edge="1">
          <mxGeometry relative="1" as="geometry" />
        </mxCell>
        <mxCell id="vt_LdCKFK2phQcsKuzaI-21" value="1" style="edgeLabel;html=1;align=center;verticalAlign=middle;resizable=0;points=[];fontFamily=Helvetica;fontSize=11;fontColor=default;labelBackgroundColor=none;" parent="vt_LdCKFK2phQcsKuzaI-19" vertex="1" connectable="0">
          <mxGeometry x="0.6494" relative="1" as="geometry">
            <mxPoint x="5" as="offset" />
          </mxGeometry>
        </mxCell>
        <mxCell id="vt_LdCKFK2phQcsKuzaI-25" value="KodAgendy" style="edgeLabel;html=1;align=center;verticalAlign=middle;resizable=0;points=[];fontFamily=Helvetica;fontSize=11;fontColor=default;labelBackgroundColor=default;" parent="vt_LdCKFK2phQcsKuzaI-19" vertex="1" connectable="0">
          <mxGeometry x="-0.0517" relative="1" as="geometry">
            <mxPoint as="offset" />
          </mxGeometry>
        </mxCell>
        <mxCell id="vt_LdCKFK2phQcsKuzaI-12" value="&lt;span style=&quot;font-size: 12px;&quot;&gt;&amp;lt;&amp;lt;Matica&amp;gt;&amp;gt;&lt;/span&gt;&lt;div style=&quot;font-size: 12px;&quot;&gt;&lt;b&gt;Činnosť&lt;/b&gt;&lt;/div&gt;" style="rounded=0;whiteSpace=wrap;html=1;fontFamily=Helvetica;fontSize=11;labelBackgroundColor=none;fillColor=#FFC800;strokeColor=#000000;" parent="WIyWlLk6GJQsqaUBKTNV-1" vertex="1">
          <mxGeometry x="280" y="320" width="120" height="60" as="geometry" />
        </mxCell>
        <mxCell id="vt_LdCKFK2phQcsKuzaI-61" value="" style="edgeStyle=orthogonalEdgeStyle;shape=connector;rounded=0;orthogonalLoop=1;jettySize=auto;html=1;strokeColor=default;align=center;verticalAlign=middle;fontFamily=Helvetica;fontSize=11;fontColor=default;labelBackgroundColor=default;endArrow=none;endFill=0;startFill=0;startArrow=open;" parent="WIyWlLk6GJQsqaUBKTNV-1" source="vt_LdCKFK2phQcsKuzaI-16" target="vt_LdCKFK2phQcsKuzaI-59" edge="1">
          <mxGeometry relative="1" as="geometry" />
        </mxCell>
        <mxCell id="vt_LdCKFK2phQcsKuzaI-64" value="1" style="edgeLabel;html=1;align=center;verticalAlign=middle;resizable=0;points=[];fontFamily=Helvetica;fontSize=11;fontColor=default;labelBackgroundColor=none;" parent="vt_LdCKFK2phQcsKuzaI-61" vertex="1" connectable="0">
          <mxGeometry x="-0.6379" relative="1" as="geometry">
            <mxPoint x="8" as="offset" />
          </mxGeometry>
        </mxCell>
        <mxCell id="vt_LdCKFK2phQcsKuzaI-65" value="0..*" style="edgeLabel;html=1;align=center;verticalAlign=middle;resizable=0;points=[];fontFamily=Helvetica;fontSize=11;fontColor=default;labelBackgroundColor=none;" parent="vt_LdCKFK2phQcsKuzaI-61" vertex="1" connectable="0">
          <mxGeometry x="0.5805" y="-2" relative="1" as="geometry">
            <mxPoint x="14" y="1" as="offset" />
          </mxGeometry>
        </mxCell>
        <mxCell id="vt_LdCKFK2phQcsKuzaI-16" value="&lt;span style=&quot;font-size: 12px;&quot;&gt;Činnosť Agendy&lt;/span&gt;" style="rounded=0;whiteSpace=wrap;html=1;fontFamily=Helvetica;fontSize=11;labelBackgroundColor=none;fillColor=#00AEE8;strokeColor=#000000;" parent="WIyWlLk6GJQsqaUBKTNV-1" vertex="1">
          <mxGeometry x="40" y="320" width="120" height="60" as="geometry" />
        </mxCell>
        <mxCell id="vt_LdCKFK2phQcsKuzaI-18" value="Agenda" style="rounded=0;whiteSpace=wrap;html=1;fontFamily=Helvetica;fontSize=11;labelBackgroundColor=none;fillColor=#00AEE8;strokeColor=#000000;" parent="WIyWlLk6GJQsqaUBKTNV-1" vertex="1">
          <mxGeometry x="280" y="440" width="120" height="60" as="geometry" />
        </mxCell>
        <mxCell id="vt_LdCKFK2phQcsKuzaI-27" value="&lt;span style=&quot;font-size: 12px;&quot;&gt;&amp;lt;&amp;lt;Matica&amp;gt;&amp;gt;&lt;/span&gt;&lt;div style=&quot;font-size: 12px;&quot;&gt;&lt;b&gt;Ais&lt;/b&gt;&lt;/div&gt;" style="rounded=0;whiteSpace=wrap;html=1;fontFamily=Helvetica;fontSize=11;labelBackgroundColor=none;fillColor=#FFC800;strokeColor=#000000;" parent="WIyWlLk6GJQsqaUBKTNV-1" vertex="1">
          <mxGeometry x="680" y="320" width="120" height="60" as="geometry" />
        </mxCell>
        <mxCell id="vt_LdCKFK2phQcsKuzaI-34" value="Agendovy IS&lt;div&gt;&lt;font style=&quot;font-size: 9px;&quot;&gt;CAgendovyInfSystem&lt;/font&gt;&lt;/div&gt;&lt;div&gt;&lt;font style=&quot;font-size: 9px;&quot;&gt;&lt;div style=&quot;&quot;&gt;ISVS / SSVÚ&lt;/div&gt;&lt;/font&gt;&lt;/div&gt;" style="rounded=0;whiteSpace=wrap;html=1;fontFamily=Helvetica;fontSize=11;labelBackgroundColor=none;fillColor=#00AEE8;strokeColor=#000000;" parent="WIyWlLk6GJQsqaUBKTNV-1" vertex="1">
          <mxGeometry x="680" y="440" width="120" height="60" as="geometry" />
        </mxCell>
        <mxCell id="vt_LdCKFK2phQcsKuzaI-35" value="" style="edgeStyle=orthogonalEdgeStyle;shape=connector;rounded=0;orthogonalLoop=1;jettySize=auto;html=1;strokeColor=default;align=center;verticalAlign=middle;fontFamily=Helvetica;fontSize=11;fontColor=default;labelBackgroundColor=default;endArrow=open;endFill=0;sourceMultiplicity=1..*;targetMultiplicity=0..1;label=XXXX" parent="WIyWlLk6GJQsqaUBKTNV-1" source="vt_LdCKFK2phQcsKuzaI-27" target="vt_LdCKFK2phQcsKuzaI-34" edge="1">
          <mxGeometry relative="1" as="geometry">
            <mxPoint x="550" y="390" as="sourcePoint" />
            <mxPoint x="550" y="490" as="targetPoint" />
          </mxGeometry>
        </mxCell>
        <mxCell id="vt_LdCKFK2phQcsKuzaI-36" value="1" style="edgeLabel;html=1;align=center;verticalAlign=middle;resizable=0;points=[];fontFamily=Helvetica;fontSize=11;fontColor=default;labelBackgroundColor=none;" parent="vt_LdCKFK2phQcsKuzaI-35" vertex="1" connectable="0">
          <mxGeometry x="0.6724" y="1" relative="1" as="geometry">
            <mxPoint x="6" y="-1" as="offset" />
          </mxGeometry>
        </mxCell>
        <mxCell id="vt_LdCKFK2phQcsKuzaI-37" value="KodAis" style="edgeLabel;html=1;align=center;verticalAlign=middle;resizable=0;points=[];fontFamily=Helvetica;fontSize=11;fontColor=default;labelBackgroundColor=default;" parent="vt_LdCKFK2phQcsKuzaI-35" vertex="1" connectable="0">
          <mxGeometry x="-0.0103" y="1" relative="1" as="geometry">
            <mxPoint as="offset" />
          </mxGeometry>
        </mxCell>
        <mxCell id="vt_LdCKFK2phQcsKuzaI-38" value="&lt;span style=&quot;font-size: 12px;&quot;&gt;&amp;lt;&amp;lt;Matica&amp;gt;&amp;gt;&lt;/span&gt;&lt;div style=&quot;font-size: 12px;&quot;&gt;&lt;b&gt;Skupina Oprávnení&lt;/b&gt;&lt;/div&gt;" style="rounded=0;whiteSpace=wrap;html=1;fontFamily=Helvetica;fontSize=11;labelBackgroundColor=none;fillColor=#FFC800;strokeColor=#000000;" parent="WIyWlLk6GJQsqaUBKTNV-1" vertex="1">
          <mxGeometry x="480" y="200" width="120" height="60" as="geometry" />
        </mxCell>
        <mxCell id="vt_LdCKFK2phQcsKuzaI-39" value="" style="edgeStyle=orthogonalEdgeStyle;shape=connector;rounded=0;orthogonalLoop=1;jettySize=auto;html=1;strokeColor=default;align=center;verticalAlign=middle;fontFamily=Helvetica;fontSize=11;fontColor=default;labelBackgroundColor=default;endArrow=open;endFill=0;" parent="WIyWlLk6GJQsqaUBKTNV-1" source="vt_LdCKFK2phQcsKuzaI-7" target="vt_LdCKFK2phQcsKuzaI-38" edge="1">
          <mxGeometry relative="1" as="geometry">
            <mxPoint x="490" y="360" as="sourcePoint" />
            <mxPoint x="410" y="360" as="targetPoint" />
          </mxGeometry>
        </mxCell>
        <mxCell id="vt_LdCKFK2phQcsKuzaI-40" value="1" style="edgeLabel;html=1;align=center;verticalAlign=middle;resizable=0;points=[];fontFamily=Helvetica;fontSize=11;fontColor=default;labelBackgroundColor=default;" parent="vt_LdCKFK2phQcsKuzaI-39" vertex="1" connectable="0">
          <mxGeometry x="0.5948" y="1" relative="1" as="geometry">
            <mxPoint x="-5" y="3" as="offset" />
          </mxGeometry>
        </mxCell>
        <mxCell id="vt_LdCKFK2phQcsKuzaI-41" value="0..*" style="edgeLabel;html=1;align=center;verticalAlign=middle;resizable=0;points=[];fontFamily=Helvetica;fontSize=11;fontColor=default;labelBackgroundColor=none;" parent="vt_LdCKFK2phQcsKuzaI-39" vertex="1" connectable="0">
          <mxGeometry x="-0.7672" y="1" relative="1" as="geometry">
            <mxPoint x="-9" y="-1" as="offset" />
          </mxGeometry>
        </mxCell>
        <mxCell id="vt_LdCKFK2phQcsKuzaI-47" value="" style="edgeStyle=orthogonalEdgeStyle;shape=connector;rounded=0;orthogonalLoop=1;jettySize=auto;html=1;strokeColor=default;align=center;verticalAlign=middle;fontFamily=Helvetica;fontSize=11;fontColor=default;labelBackgroundColor=default;endArrow=none;endFill=0;startFill=0;" parent="WIyWlLk6GJQsqaUBKTNV-1" source="vt_LdCKFK2phQcsKuzaI-38" target="vt_LdCKFK2phQcsKuzaI-46" edge="1">
          <mxGeometry relative="1" as="geometry" />
        </mxCell>
        <mxCell id="vt_LdCKFK2phQcsKuzaI-42" value="&lt;span style=&quot;font-size: 12px;&quot;&gt;&amp;lt;&amp;lt;Matica&amp;gt;&amp;gt;&lt;/span&gt;&lt;div style=&quot;font-size: 12px;&quot;&gt;&lt;b&gt;Skupina Oprávnení Údaj&lt;/b&gt;&lt;/div&gt;" style="rounded=0;whiteSpace=wrap;html=1;fontFamily=Helvetica;fontSize=11;labelBackgroundColor=none;" parent="WIyWlLk6GJQsqaUBKTNV-1" vertex="1">
          <mxGeometry x="660" y="120" width="160" height="60" as="geometry" />
        </mxCell>
        <mxCell id="vt_LdCKFK2phQcsKuzaI-46" value="&lt;span style=&quot;font-size: 12px;&quot;&gt;&amp;lt;&amp;lt;Matica&amp;gt;&amp;gt;&lt;/span&gt;&lt;div style=&quot;font-size: 12px;&quot;&gt;&lt;b&gt;Oprávnení Údaj&lt;/b&gt;&lt;/div&gt;" style="rounded=0;whiteSpace=wrap;html=1;fontFamily=Helvetica;fontSize=11;labelBackgroundColor=none;fillColor=#FFC800;strokeColor=#000000;" parent="WIyWlLk6GJQsqaUBKTNV-1" vertex="1">
          <mxGeometry x="880" y="200" width="120" height="60" as="geometry" />
        </mxCell>
        <mxCell id="vt_LdCKFK2phQcsKuzaI-49" value="" style="edgeStyle=orthogonalEdgeStyle;shape=connector;rounded=0;orthogonalLoop=1;jettySize=auto;html=1;strokeColor=default;align=center;verticalAlign=middle;fontFamily=Helvetica;fontSize=11;fontColor=default;labelBackgroundColor=default;endArrow=none;endFill=0;startFill=0;exitX=0.5;exitY=1;exitDx=0;exitDy=0;dashed=1;" parent="WIyWlLk6GJQsqaUBKTNV-1" source="vt_LdCKFK2phQcsKuzaI-42" edge="1">
          <mxGeometry relative="1" as="geometry">
            <mxPoint x="610" y="240" as="sourcePoint" />
            <mxPoint x="740" y="230" as="targetPoint" />
          </mxGeometry>
        </mxCell>
        <mxCell id="vt_LdCKFK2phQcsKuzaI-50" value="Objekt Udaj&lt;div&gt;&lt;font style=&quot;font-size: 9px;&quot;&gt;Informace o objektech, o kterých vede agenda údaje&amp;nbsp;&lt;/font&gt;&lt;/div&gt;" style="rounded=0;whiteSpace=wrap;html=1;fontFamily=Helvetica;fontSize=11;labelBackgroundColor=none;fillColor=#00AEE8;strokeColor=#000000;" parent="WIyWlLk6GJQsqaUBKTNV-1" vertex="1">
          <mxGeometry x="880" y="320" width="120" height="60" as="geometry" />
        </mxCell>
        <mxCell id="vt_LdCKFK2phQcsKuzaI-51" value="" style="edgeStyle=orthogonalEdgeStyle;shape=connector;rounded=0;orthogonalLoop=1;jettySize=auto;html=1;strokeColor=default;align=center;verticalAlign=middle;fontFamily=Helvetica;fontSize=11;fontColor=default;labelBackgroundColor=default;endArrow=open;endFill=0;" parent="WIyWlLk6GJQsqaUBKTNV-1" source="vt_LdCKFK2phQcsKuzaI-46" target="vt_LdCKFK2phQcsKuzaI-50" edge="1">
          <mxGeometry relative="1" as="geometry">
            <mxPoint x="690" y="380" as="sourcePoint" />
            <mxPoint x="610" y="380" as="targetPoint" />
          </mxGeometry>
        </mxCell>
        <mxCell id="vt_LdCKFK2phQcsKuzaI-52" value="1" style="edgeLabel;html=1;align=center;verticalAlign=middle;resizable=0;points=[];fontFamily=Helvetica;fontSize=11;fontColor=default;labelBackgroundColor=none;" parent="vt_LdCKFK2phQcsKuzaI-51" vertex="1" connectable="0">
          <mxGeometry x="0.7155" y="-1" relative="1" as="geometry">
            <mxPoint x="9" y="-1" as="offset" />
          </mxGeometry>
        </mxCell>
        <mxCell id="vt_LdCKFK2phQcsKuzaI-54" value="0..*" style="edgeLabel;html=1;align=center;verticalAlign=middle;resizable=0;points=[];fontFamily=Helvetica;fontSize=11;fontColor=default;labelBackgroundColor=none;" parent="vt_LdCKFK2phQcsKuzaI-51" vertex="1" connectable="0">
          <mxGeometry x="-0.7672" y="1" relative="1" as="geometry">
            <mxPoint x="10" y="3" as="offset" />
          </mxGeometry>
        </mxCell>
        <mxCell id="vt_LdCKFK2phQcsKuzaI-55" value="Údaj&lt;div&gt;&lt;font style=&quot;font-size: 9px;&quot;&gt;vedený agendov&lt;/font&gt;&lt;/div&gt;" style="rounded=0;whiteSpace=wrap;html=1;fontFamily=Helvetica;fontSize=11;labelBackgroundColor=none;fillColor=#00AEE8;strokeColor=#000000;" parent="WIyWlLk6GJQsqaUBKTNV-1" vertex="1">
          <mxGeometry x="880" y="440" width="120" height="60" as="geometry" />
        </mxCell>
        <mxCell id="vt_LdCKFK2phQcsKuzaI-56" value="" style="edgeStyle=orthogonalEdgeStyle;shape=connector;rounded=0;orthogonalLoop=1;jettySize=auto;html=1;strokeColor=default;align=center;verticalAlign=middle;fontFamily=Helvetica;fontSize=11;fontColor=default;labelBackgroundColor=default;endArrow=open;endFill=0;exitX=0.5;exitY=0;exitDx=0;exitDy=0;" parent="WIyWlLk6GJQsqaUBKTNV-1" source="vt_LdCKFK2phQcsKuzaI-55" target="vt_LdCKFK2phQcsKuzaI-50" edge="1">
          <mxGeometry relative="1" as="geometry">
            <mxPoint x="890" y="340" as="sourcePoint" />
            <mxPoint x="810" y="340" as="targetPoint" />
          </mxGeometry>
        </mxCell>
        <mxCell id="vt_LdCKFK2phQcsKuzaI-57" value="1" style="edgeLabel;html=1;align=center;verticalAlign=middle;resizable=0;points=[];fontFamily=Helvetica;fontSize=11;fontColor=default;labelBackgroundColor=none;" parent="vt_LdCKFK2phQcsKuzaI-56" vertex="1" connectable="0">
          <mxGeometry x="0.7155" y="-1" relative="1" as="geometry">
            <mxPoint x="5" y="3" as="offset" />
          </mxGeometry>
        </mxCell>
        <mxCell id="vt_LdCKFK2phQcsKuzaI-58" value="0..*" style="edgeLabel;html=1;align=center;verticalAlign=middle;resizable=0;points=[];fontFamily=Helvetica;fontSize=11;fontColor=default;labelBackgroundColor=none;" parent="vt_LdCKFK2phQcsKuzaI-56" vertex="1" connectable="0">
          <mxGeometry x="-0.7672" y="1" relative="1" as="geometry">
            <mxPoint x="11" y="1" as="offset" />
          </mxGeometry>
        </mxCell>
        <mxCell id="vt_LdCKFK2phQcsKuzaI-62" value="" style="edgeStyle=orthogonalEdgeStyle;shape=connector;rounded=0;orthogonalLoop=1;jettySize=auto;html=1;strokeColor=default;align=center;verticalAlign=middle;fontFamily=Helvetica;fontSize=11;fontColor=default;labelBackgroundColor=default;endArrow=open;endFill=0;startFill=0;" parent="WIyWlLk6GJQsqaUBKTNV-1" source="vt_LdCKFK2phQcsKuzaI-59" target="vt_LdCKFK2phQcsKuzaI-60" edge="1">
          <mxGeometry relative="1" as="geometry" />
        </mxCell>
        <mxCell id="vt_LdCKFK2phQcsKuzaI-63" value="1" style="edgeLabel;html=1;align=center;verticalAlign=middle;resizable=0;points=[];fontFamily=Helvetica;fontSize=11;fontColor=default;labelBackgroundColor=none;" parent="vt_LdCKFK2phQcsKuzaI-62" vertex="1" connectable="0">
          <mxGeometry x="0.6724" relative="1" as="geometry">
            <mxPoint x="8" as="offset" />
          </mxGeometry>
        </mxCell>
        <mxCell id="vt_LdCKFK2phQcsKuzaI-66" value="&lt;span style=&quot;background-color: rgb(251, 251, 251);&quot;&gt;0..*&lt;/span&gt;" style="edgeLabel;html=1;align=center;verticalAlign=middle;resizable=0;points=[];fontFamily=Helvetica;fontSize=11;fontColor=default;labelBackgroundColor=default;" parent="vt_LdCKFK2phQcsKuzaI-62" vertex="1" connectable="0">
          <mxGeometry x="-0.6379" y="2" relative="1" as="geometry">
            <mxPoint x="9" as="offset" />
          </mxGeometry>
        </mxCell>
        <mxCell id="vt_LdCKFK2phQcsKuzaI-59" value="&lt;span style=&quot;font-size: 12px;&quot;&gt;SluzbaCinnostAg&lt;/span&gt;" style="rounded=0;whiteSpace=wrap;html=1;fontFamily=Helvetica;fontSize=11;labelBackgroundColor=none;" parent="WIyWlLk6GJQsqaUBKTNV-1" vertex="1">
          <mxGeometry x="40" y="440" width="120" height="60" as="geometry" />
        </mxCell>
        <mxCell id="vt_LdCKFK2phQcsKuzaI-60" value="Služba" style="rounded=0;whiteSpace=wrap;html=1;fontFamily=Helvetica;fontSize=11;labelBackgroundColor=none;fillColor=#00AEE8;strokeColor=#000000;" parent="WIyWlLk6GJQsqaUBKTNV-1" vertex="1">
          <mxGeometry x="40" y="560" width="120" height="60" as="geometry" />
        </mxCell>
        <mxCell id="ZkXHmp2QW_EwgX9l6lz7-0" value="" style="html=1;startArrow=diamondThin;startFill=1;elbow=vertical;startSize=10;endArrow=none;endFill=0;rounded=0;exitX=0;exitY=0;exitDx=0;exitDy=0;entryX=1;entryY=1;entryDx=0;entryDy=0;strokeColor=#7D8282;" parent="WIyWlLk6GJQsqaUBKTNV-1" source="vt_LdCKFK2phQcsKuzaI-18" target="vt_LdCKFK2phQcsKuzaI-16" edge="1">
          <mxGeometry width="160" relative="1" as="geometry">
            <mxPoint x="500" y="610" as="sourcePoint" />
            <mxPoint x="660" y="610" as="targetPoint" />
          </mxGeometry>
        </mxCell>
      </root>
    </mxGraphModel>
  </diagram>
</mxfile>
